{
    "asset" : {
        "generator" : "Khronos glTF Blender I/O v1.4.40",
        "version" : "2.0"
    },
    "scene" : 0,
    "scenes" : [
        {
            "name" : "Scene",
            "nodes" : [
                0,
                1,
                2,
                3
            ]
        }
    ],
    "nodes" : [
        {
            "name" : "Light",
            "rotation" : [
                0.16907575726509094,
                0.7558803558349609,
                -0.27217137813568115,
                0.570947527885437
            ],
            "translation" : [
                5.243716239929199,
                103.1109390258789,
                -150.34890747070312
            ]
        },
        {
            "name" : "Camera",
            "rotation" : [
                0.483536034822464,
                0.33687159419059753,
                -0.20870360732078552,
                0.7804827094078064
            ],
            "scale" : [
                1.3799999952316284,
                2.0299999713897705,
                1.8199999332427979
            ],
            "translation" : [
                74.05414581298828,
                120.82452392578125,
                185.52365112304688
            ]
        },
        {
            "mesh" : 0,
            "name" : "Text",
            "rotation" : [
                0.7061697840690613,
                0.026527656242251396,
                -0.03639087453484535,
                0.7066090106964111
            ],
            "scale" : [
                52.687034606933594,
                1.2511111497879028,
                144.71778869628906
            ],
            "translation" : [
                43.933021545410156,
                125.84022521972656,
                -36.942378997802734
            ]
        },
        {
            "mesh" : 1,
            "name" : "Cone",
            "scale" : [
                75,
                80,
                75
            ],
            "translation" : [
                14.754949569702148,
                77.37478637695312,
                -45.253475189208984
            ]
        }
    ],
    "materials" : [
        {
            "doubleSided" : true,
            "name" : "Material.001",
            "pbrMetallicRoughness" : {
                "baseColorTexture" : {
                    "index" : 0,
                    "texCoord" : 0
                },
                "metallicFactor" : 0,
                "roughnessFactor" : 0.5
            }
        }
    ],
    "meshes" : [
        {
            "name" : "sphere",
            "primitives" : [
                {
                    "attributes" : {
                        "POSITION" : 0,
                        "NORMAL" : 1,
                        "TEXCOORD_0" : 2
                    },
                    "indices" : 3,
                    "material" : 0
                }
            ]
        },
        {
            "name" : "Cone",
            "primitives" : [
                {
                    "attributes" : {
                        "POSITION" : 4,
                        "NORMAL" : 5,
                        "TEXCOORD_0" : 6
                    },
                    "indices" : 7,
                    "material" : 0
                }
            ]
        }
    ],
    "textures" : [
        {
            "sampler" : 0,
            "source" : 0
        }
    ],
    "images" : [
        {
            "bufferView" : 4,
            "mimeType" : "image/png",
            "name" : "berry"
        }
    ],
    "accessors" : [
        {
            "bufferView" : 0,
            "componentType" : 5126,
            "count" : 7274,
            "max" : [
                1.5421271324157715,
                0.8999999761581421,
                0.024516575038433075
            ],
            "min" : [
                0.031077349558472633,
                -0.8999999761581421,
                -0.5258978009223938
            ],
            "type" : "VEC3"
        },
        {
            "bufferView" : 1,
            "componentType" : 5126,
            "count" : 7274,
            "type" : "VEC3"
        },
        {
            "bufferView" : 2,
            "componentType" : 5126,
            "count" : 7274,
            "type" : "VEC2"
        },
        {
            "bufferView" : 3,
            "componentType" : 5123,
            "count" : 13296,
            "type" : "SCALAR"
        },
        {
            "bufferView" : 5,
            "componentType" : 5126,
            "count" : 128,
            "max" : [
                1,
                1,
                1
            ],
            "min" : [
                -1,
                -1,
                -1
            ],
            "type" : "VEC3"
        },
        {
            "bufferView" : 6,
            "componentType" : 5126,
            "count" : 128,
            "type" : "VEC3"
        },
        {
            "bufferView" : 7,
            "componentType" : 5126,
            "count" : 128,
            "type" : "VEC2"
        },
        {
            "bufferView" : 8,
            "componentType" : 5123,
            "count" : 186,
            "type" : "SCALAR"
        }
    ],
    "bufferViews" : [
        {
            "buffer" : 0,
            "byteLength" : 87288,
            "byteOffset" : 0
        },
        {
            "buffer" : 0,
            "byteLength" : 87288,
            "byteOffset" : 87288
        },
        {
            "buffer" : 0,
            "byteLength" : 58192,
            "byteOffset" : 174576
        },
        {
            "buffer" : 0,
            "byteLength" : 26592,
            "byteOffset" : 232768
        },
        {
            "buffer" : 0,
            "byteLength" : 449462,
            "byteOffset" : 259360
        },
        {
            "buffer" : 0,
            "byteLength" : 1536,
            "byteOffset" : 708824
        },
        {
            "buffer" : 0,
            "byteLength" : 1536,
            "byteOffset" : 710360
        },
        {
            "buffer" : 0,
            "byteLength" : 1024,
            "byteOffset" : 711896
        },
        {
            "buffer" : 0,
            "byteLength" : 372,
            "byteOffset" : 712920
        }
    ],
    "samplers" : [
        {
            "magFilter" : 9729,
            "minFilter" : 9986
        }
    ],
    "buffers" : [
        {
            "byteLength" : 713292,
            "uri" : "data:application/octet-stream;base64,"
        }
    ]
}
