{
    "asset" : {
        "generator" : "Khronos glTF Blender I/O v1.4.40",
        "version" : "2.0"
    },
    "scene" : 0,
    "scenes" : [
        {
            "name" : "Scene",
            "nodes" : [
                0,
                1,
                2,
                3
            ]
        }
    ],
    "nodes" : [
        {
            "name" : "Light",
            "rotation" : [
                0.16907575726509094,
                0.7558803558349609,
                -0.27217137813568115,
                0.570947527885437
            ],
            "translation" : [
                5.243716239929199,
                103.1109390258789,
                -150.34890747070312
            ]
        },
        {
            "name" : "Camera",
            "rotation" : [
                0.483536034822464,
                0.33687159419059753,
                -0.20870360732078552,
                0.7804827094078064
            ],
            "scale" : [
                1.3799999952316284,
                2.0299999713897705,
                1.8199999332427979
            ],
            "translation" : [
                74.05414581298828,
                120.82452392578125,
                185.52365112304688
            ]
        },
        {
            "mesh" : 0,
            "name" : "Text",
            "rotation" : [
                0.15424655377864838,
                0.04287544637918472,
                -0.013773458078503609,
                0.9870055913925171
            ],
            "scale" : [
                52.687034606933594,
                1.2511111497879028,
                144.71778869628906
            ],
            "translation" : [
                -105.33902740478516,
                75.1910629272461,
                -31.34254264831543
            ]
        },
        {
            "mesh" : 1,
            "name" : "Cone",
            "scale" : [
                75,
                80,
                75
            ],
            "translation" : [
                -0.6358139514923096,
                35.50910568237305,
                -38.01143264770508
            ]
        }
    ],
    "materials" : [
        {
            "name" : "Material",
            "pbrMetallicRoughness" : {
                "baseColorFactor" : [
                    0.03107072226703167,
                    0.8000000715255737,
                    0.8000000715255737,
                    1
                ],
                "metallicFactor" : 0.1560283750295639,
                "roughnessFactor" : 0.4000000059604645
            }
        }
    ],
    "meshes" : [
        {
            "name" : "sphere",
            "primitives" : [
                {
                    "attributes" : {
                        "POSITION" : 0,
                        "NORMAL" : 1,
                        "TEXCOORD_0" : 2
                    },
                    "indices" : 3,
                    "material" : 0
                }
            ]
        },
        {
            "name" : "Cone",
            "primitives" : [
                {
                    "attributes" : {
                        "POSITION" : 4,
                        "NORMAL" : 5,
                        "TEXCOORD_0" : 6
                    },
                    "indices" : 7,
                    "material" : 0
                }
            ]
        }
    ],
    "accessors" : [
        {
            "bufferView" : 0,
            "componentType" : 5126,
            "count" : 3985,
            "max" : [
                1.3547204732894897,
                0.8999999761581421,
                -0.0030553010292351246
            ],
            "min" : [
                0.03635808080434799,
                -0.8999999761581421,
                -0.479987770318985
            ],
            "type" : "VEC3"
        },
        {
            "bufferView" : 1,
            "componentType" : 5126,
            "count" : 3985,
            "type" : "VEC3"
        },
        {
            "bufferView" : 2,
            "componentType" : 5126,
            "count" : 3985,
            "type" : "VEC2"
        },
        {
            "bufferView" : 3,
            "componentType" : 5123,
            "count" : 7200,
            "type" : "SCALAR"
        },
        {
            "bufferView" : 4,
            "componentType" : 5126,
            "count" : 128,
            "max" : [
                1,
                1,
                1
            ],
            "min" : [
                -1,
                -1,
                -1
            ],
            "type" : "VEC3"
        },
        {
            "bufferView" : 5,
            "componentType" : 5126,
            "count" : 128,
            "type" : "VEC3"
        },
        {
            "bufferView" : 6,
            "componentType" : 5126,
            "count" : 128,
            "type" : "VEC2"
        },
        {
            "bufferView" : 7,
            "componentType" : 5123,
            "count" : 186,
            "type" : "SCALAR"
        }
    ],
    "bufferViews" : [
        {
            "buffer" : 0,
            "byteLength" : 47820,
            "byteOffset" : 0
        },
        {
            "buffer" : 0,
            "byteLength" : 47820,
            "byteOffset" : 47820
        },
        {
            "buffer" : 0,
            "byteLength" : 31880,
            "byteOffset" : 95640
        },
        {
            "buffer" : 0,
            "byteLength" : 14400,
            "byteOffset" : 127520
        },
        {
            "buffer" : 0,
            "byteLength" : 1536,
            "byteOffset" : 141920
        },
        {
            "buffer" : 0,
            "byteLength" : 1536,
            "byteOffset" : 143456
        },
        {
            "buffer" : 0,
            "byteLength" : 1024,
            "byteOffset" : 144992
        },
        {
            "buffer" : 0,
            "byteLength" : 372,
            "byteOffset" : 146016
        }
    ],
    "buffers" : [
        {
            "byteLength" : 146388,
            "uri" : "data:application/octet-stream;base64,"
        }
    ]
}
