{
    "asset" : {
        "generator" : "Khronos glTF Blender I/O v1.4.40",
        "version" : "2.0"
    },
    "scene" : 0,
    "scenes" : [
        {
            "name" : "Scene",
            "nodes" : [
                0,
                1,
                2,
                3,
                4,
                5,
                6
            ]
        }
    ],
    "nodes" : [
        {
            "name" : "Camera.001",
            "rotation" : [
                0.483536034822464,
                0.33687159419059753,
                -0.20870360732078552,
                0.7804827094078064
            ],
            "scale" : [
                1.3799999952316284,
                2.0299999713897705,
                1.8199999332427979
            ],
            "translation" : [
                51.621559143066406,
                115.55268859863281,
                204.22552490234375
            ]
        },
        {
            "name" : "Light",
            "rotation" : [
                0.16907575726509094,
                0.7558803558349609,
                -0.27217137813568115,
                0.570947527885437
            ],
            "scale" : [
                100,
                100,
                100
            ],
            "translation" : [
                161.5937042236328,
                144.85482788085938,
                -178.63755798339844
            ]
        },
        {
            "name" : "Camera",
            "rotation" : [
                0.483536034822464,
                0.33687159419059753,
                -0.20870360732078552,
                0.7804827094078064
            ],
            "translation" : [
                12.368488311767578,
                39.84354019165039,
                48.027862548828125
            ]
        },
        {
            "mesh" : 0,
            "name" : "Cube.001",
            "scale" : [
                75,
                75,
                75
            ],
            "translation" : [
                -3.8327088356018066,
                34.52606201171875,
                -33.697139739990234
            ]
        },
        {
            "mesh" : 1,
            "name" : "Text",
            "rotation" : [
                0.27981311082839966,
                3.3793767215684056e-05,
                0.006352949421852827,
                0.9600334763526917
            ],
            "scale" : [
                100,
                100,
                100.43415832519531
            ],
            "translation" : [
                96.43424224853516,
                52.2889518737793,
                -55.69633483886719
            ]
        },
        {
            "mesh" : 2,
            "name" : "Cube",
            "rotation" : [
                -0.5157851576805115,
                -0.002548050368204713,
                0.002540396060794592,
                0.8567105531692505
            ],
            "scale" : [
                14.799999237060547,
                17.100008010864258,
                0.14999999105930328
            ],
            "translation" : [
                148.35281372070312,
                -71.67923736572266,
                52.59635925292969
            ]
        },
        {
            "mesh" : 3,
            "name" : "CS",
            "rotation" : [
                0.24357613921165466,
                -0.004648957401514053,
                0.00656625023111701,
                0.9698485136032104
            ],
            "scale" : [
                30.24960708618164,
                1,
                33.30000305175781
            ],
            "translation" : [
                148.48373413085938,
                -71.58580780029297,
                53.92405700683594
            ]
        }
    ],
    "materials" : [
        {
            "name" : "Material.001",
            "pbrMetallicRoughness" : {
                "baseColorFactor" : [
                    0.03107072226703167,
                    0.8000000715255737,
                    0.8000000715255737,
                    1
                ],
                "metallicFactor" : 0.1560283750295639,
                "roughnessFactor" : 0.4000000059604645
            }
        },
        {
            "doubleSided" : true,
            "name" : "Material.002",
            "pbrMetallicRoughness" : {
                "baseColorFactor" : [
                    0.0010048800613731146,
                    0.0010432268027216196,
                    0.8000000715255737,
                    1
                ],
                "metallicFactor" : 0,
                "roughnessFactor" : 0.5
            }
        },
        {
            "alphaMode" : "BLEND",
            "doubleSided" : true,
            "name" : "CS",
            "pbrMetallicRoughness" : {
                "baseColorTexture" : {
                    "index" : 0,
                    "texCoord" : 0
                },
                "metallicFactor" : 0,
                "roughnessFactor" : 0.5
            }
        }
    ],
    "meshes" : [
        {
            "name" : "Cube.001",
            "primitives" : [
                {
                    "attributes" : {
                        "POSITION" : 0,
                        "NORMAL" : 1,
                        "TEXCOORD_0" : 2
                    },
                    "indices" : 3,
                    "material" : 0
                }
            ]
        },
        {
            "name" : "Text",
            "primitives" : [
                {
                    "attributes" : {
                        "POSITION" : 4,
                        "NORMAL" : 5,
                        "TEXCOORD_0" : 6
                    },
                    "indices" : 7,
                    "material" : 0
                }
            ]
        },
        {
            "name" : "Cube",
            "primitives" : [
                {
                    "attributes" : {
                        "POSITION" : 8,
                        "NORMAL" : 9,
                        "TEXCOORD_0" : 10
                    },
                    "indices" : 11,
                    "material" : 1
                }
            ]
        },
        {
            "name" : "CS",
            "primitives" : [
                {
                    "attributes" : {
                        "POSITION" : 12,
                        "NORMAL" : 13,
                        "TEXCOORD_0" : 14
                    },
                    "indices" : 15,
                    "material" : 2
                }
            ]
        }
    ],
    "textures" : [
        {
            "sampler" : 0,
            "source" : 0
        }
    ],
    "images" : [
        {
            "mimeType" : "image/png",
            "name" : "CS",
            "uri" : "CS.png"
        }
    ],
    "accessors" : [
        {
            "bufferView" : 0,
            "componentType" : 5126,
            "count" : 288,
            "max" : [
                1.127305507659912,
                1.127305507659912,
                1.127305507659912
            ],
            "min" : [
                -1.127305507659912,
                -1.127305507659912,
                -1.127305507659912
            ],
            "type" : "VEC3"
        },
        {
            "bufferView" : 1,
            "componentType" : 5126,
            "count" : 288,
            "type" : "VEC3"
        },
        {
            "bufferView" : 2,
            "componentType" : 5126,
            "count" : 288,
            "type" : "VEC2"
        },
        {
            "bufferView" : 3,
            "componentType" : 5123,
            "count" : 288,
            "type" : "SCALAR"
        },
        {
            "bufferView" : 4,
            "componentType" : 5126,
            "count" : 782,
            "max" : [
                1.4717271327972412,
                0,
                -0.0024585125502198935
            ],
            "min" : [
                0.03902888670563698,
                0,
                -0.4834050238132477
            ],
            "type" : "VEC3"
        },
        {
            "bufferView" : 5,
            "componentType" : 5126,
            "count" : 782,
            "type" : "VEC3"
        },
        {
            "bufferView" : 6,
            "componentType" : 5126,
            "count" : 782,
            "type" : "VEC2"
        },
        {
            "bufferView" : 7,
            "componentType" : 5123,
            "count" : 1740,
            "type" : "SCALAR"
        },
        {
            "bufferView" : 8,
            "componentType" : 5126,
            "count" : 24,
            "max" : [
                1,
                1,
                1
            ],
            "min" : [
                -1,
                -1,
                -1
            ],
            "type" : "VEC3"
        },
        {
            "bufferView" : 9,
            "componentType" : 5126,
            "count" : 24,
            "type" : "VEC3"
        },
        {
            "bufferView" : 10,
            "componentType" : 5126,
            "count" : 24,
            "type" : "VEC2"
        },
        {
            "bufferView" : 11,
            "componentType" : 5123,
            "count" : 36,
            "type" : "SCALAR"
        },
        {
            "bufferView" : 12,
            "componentType" : 5126,
            "count" : 4,
            "max" : [
                0.6082724928855896,
                0,
                0.5
            ],
            "min" : [
                -0.6082724928855896,
                0,
                -0.5
            ],
            "type" : "VEC3"
        },
        {
            "bufferView" : 13,
            "componentType" : 5126,
            "count" : 4,
            "type" : "VEC3"
        },
        {
            "bufferView" : 14,
            "componentType" : 5126,
            "count" : 4,
            "type" : "VEC2"
        },
        {
            "bufferView" : 15,
            "componentType" : 5123,
            "count" : 6,
            "type" : "SCALAR"
        }
    ],
    "bufferViews" : [
        {
            "buffer" : 0,
            "byteLength" : 3456,
            "byteOffset" : 0
        },
        {
            "buffer" : 0,
            "byteLength" : 3456,
            "byteOffset" : 3456
        },
        {
            "buffer" : 0,
            "byteLength" : 2304,
            "byteOffset" : 6912
        },
        {
            "buffer" : 0,
            "byteLength" : 576,
            "byteOffset" : 9216
        },
        {
            "buffer" : 0,
            "byteLength" : 9384,
            "byteOffset" : 9792
        },
        {
            "buffer" : 0,
            "byteLength" : 9384,
            "byteOffset" : 19176
        },
        {
            "buffer" : 0,
            "byteLength" : 6256,
            "byteOffset" : 28560
        },
        {
            "buffer" : 0,
            "byteLength" : 3480,
            "byteOffset" : 34816
        },
        {
            "buffer" : 0,
            "byteLength" : 288,
            "byteOffset" : 38296
        },
        {
            "buffer" : 0,
            "byteLength" : 288,
            "byteOffset" : 38584
        },
        {
            "buffer" : 0,
            "byteLength" : 192,
            "byteOffset" : 38872
        },
        {
            "buffer" : 0,
            "byteLength" : 72,
            "byteOffset" : 39064
        },
        {
            "buffer" : 0,
            "byteLength" : 48,
            "byteOffset" : 39136
        },
        {
            "buffer" : 0,
            "byteLength" : 48,
            "byteOffset" : 39184
        },
        {
            "buffer" : 0,
            "byteLength" : 32,
            "byteOffset" : 39232
        },
        {
            "buffer" : 0,
            "byteLength" : 12,
            "byteOffset" : 39264
        }
    ],
    "samplers" : [
        {
            "magFilter" : 9729,
            "minFilter" : 9986
        }
    ],
    "buffers" : [
        {
            "byteLength" : 39276,
            "uri" : "cubexulogo.bin"
        }
    ]
}
