{
    "asset" : {
        "generator" : "Khronos glTF Blender I/O v1.4.40",
        "version" : "2.0"
    },
    "scene" : 0,
    "scenes" : [
        {
            "name" : "Scene",
            "nodes" : [
                0,
                1,
                2,
                3,
                4,
                5,
                6,
                7,
                8,
                9,
                10
            ]
        }
    ],
    "nodes" : [
        {
            "name" : "Light",
            "rotation" : [
                0.16907575726509094,
                0.7558803558349609,
                -0.27217137813568115,
                0.570947527885437
            ],
            "translation" : [
                5.243716239929199,
                103.1109390258789,
                -150.34890747070312
            ]
        },
        {
            "name" : "Camera.001",
            "rotation" : [
                0.483536034822464,
                0.33687159419059753,
                -0.20870360732078552,
                0.7804827094078064
            ],
            "scale" : [
                1.3799999952316284,
                2.0299999713897705,
                1.8199999332427979
            ],
            "translation" : [
                74.05414581298828,
                120.82452392578125,
                185.52365112304688
            ]
        },
        {
            "name" : "Light.001",
            "rotation" : [
                0.16907575726509094,
                0.7558803558349609,
                -0.27217137813568115,
                0.570947527885437
            ],
            "scale" : [
                100,
                100,
                100
            ],
            "translation" : [
                161.5937042236328,
                144.85482788085938,
                -178.63755798339844
            ]
        },
        {
            "name" : "Camera.002",
            "rotation" : [
                0.483536034822464,
                0.33687159419059753,
                -0.20870360732078552,
                0.7804827094078064
            ],
            "translation" : [
                12.368488311767578,
                39.84354019165039,
                48.027862548828125
            ]
        },
        {
            "name" : "Light.002",
            "rotation" : [
                0.16907575726509094,
                0.7558803558349609,
                -0.27217137813568115,
                0.570947527885437
            ],
            "translation" : [
                5.243716239929199,
                103.1109390258789,
                -150.34890747070312
            ]
        },
        {
            "name" : "Camera.003",
            "rotation" : [
                0.483536034822464,
                0.33687159419059753,
                -0.20870360732078552,
                0.7804827094078064
            ],
            "scale" : [
                1.3799999952316284,
                2.0299999713897705,
                1.8199999332427979
            ],
            "translation" : [
                74.05414581298828,
                120.82452392578125,
                185.52365112304688
            ]
        },
        {
            "mesh" : 0,
            "name" : "Sphere",
            "scale" : [
                75,
                75,
                74.99998474121094
            ]
        },
        {
            "mesh" : 1,
            "name" : "Text",
            "rotation" : [
                0.15424655377864838,
                0.04287544637918472,
                -0.013773458078503609,
                0.9870055913925171
            ],
            "scale" : [
                52.687034606933594,
                1.2511111497879028,
                144.71778869628906
            ],
            "translation" : [
                72.0040512084961,
                3.3695573806762695,
                -14.66500186920166
            ]
        },
        {
            "name" : "Camera",
            "rotation" : [
                0.7071068286895752,
                0,
                0,
                0.7071068286895752
            ],
            "translation" : [
                189.73182678222656,
                -22.382143020629883,
                -18.72666358947754
            ]
        },
        {
            "mesh" : 2,
            "name" : "Cube",
            "rotation" : [
                -0.5157851576805115,
                -0.002548050368204713,
                0.002540396060794592,
                0.8567105531692505
            ],
            "scale" : [
                14.799999237060547,
                17.100008010864258,
                0.14999999105930328
            ],
            "translation" : [
                148.35281372070312,
                -71.67923736572266,
                52.59635925292969
            ]
        },
        {
            "mesh" : 3,
            "name" : "CS",
            "rotation" : [
                0.24357613921165466,
                -0.004648957401514053,
                0.00656625023111701,
                0.9698485136032104
            ],
            "scale" : [
                30.24960708618164,
                1,
                33.30000305175781
            ],
            "translation" : [
                148.48373413085938,
                -71.58580780029297,
                53.92405700683594
            ]
        }
    ],
    "materials" : [
        {
            "name" : "Material.004",
            "pbrMetallicRoughness" : {
                "baseColorFactor" : [
                    0.03107072226703167,
                    0.8000000715255737,
                    0.8000000715255737,
                    1
                ],
                "metallicFactor" : 0.1560283750295639,
                "roughnessFactor" : 0.4000000059604645
            }
        },
        {
            "doubleSided" : true,
            "name" : "Material.002",
            "pbrMetallicRoughness" : {
                "baseColorFactor" : [
                    0.0010048800613731146,
                    0.0010432268027216196,
                    0.8000000715255737,
                    1
                ],
                "metallicFactor" : 0,
                "roughnessFactor" : 0.5
            }
        },
        {
            "alphaMode" : "BLEND",
            "doubleSided" : true,
            "name" : "CS",
            "pbrMetallicRoughness" : {
                "baseColorTexture" : {
                    "index" : 0,
                    "texCoord" : 0
                },
                "metallicFactor" : 0,
                "roughnessFactor" : 0.5
            }
        }
    ],
    "meshes" : [
        {
            "name" : "Sphere.002",
            "primitives" : [
                {
                    "attributes" : {
                        "POSITION" : 0,
                        "NORMAL" : 1,
                        "TEXCOORD_0" : 2
                    },
                    "indices" : 3,
                    "material" : 0
                }
            ]
        },
        {
            "name" : "sphere.001",
            "primitives" : [
                {
                    "attributes" : {
                        "POSITION" : 4,
                        "NORMAL" : 5,
                        "TEXCOORD_0" : 6
                    },
                    "indices" : 7,
                    "material" : 0
                }
            ]
        },
        {
            "name" : "Cube",
            "primitives" : [
                {
                    "attributes" : {
                        "POSITION" : 8,
                        "NORMAL" : 9,
                        "TEXCOORD_0" : 10
                    },
                    "indices" : 11,
                    "material" : 1
                }
            ]
        },
        {
            "name" : "CS",
            "primitives" : [
                {
                    "attributes" : {
                        "POSITION" : 12,
                        "NORMAL" : 13,
                        "TEXCOORD_0" : 14
                    },
                    "indices" : 15,
                    "material" : 2
                }
            ]
        }
    ],
    "textures" : [
        {
            "sampler" : 0,
            "source" : 0
        }
    ],
    "images" : [
        {
            "bufferView" : 16,
            "mimeType" : "image/png",
            "name" : "CS"
        }
    ],
    "accessors" : [
        {
            "bufferView" : 0,
            "componentType" : 5126,
            "count" : 23392,
            "max" : [
                1.0050002336502075,
                1.0049999952316284,
                1.005000352859497
            ],
            "min" : [
                -1.0049998760223389,
                -1.0049999952316284,
                -1.0049999952316284
            ],
            "type" : "VEC3"
        },
        {
            "bufferView" : 1,
            "componentType" : 5126,
            "count" : 23392,
            "type" : "VEC3"
        },
        {
            "bufferView" : 2,
            "componentType" : 5126,
            "count" : 23392,
            "type" : "VEC2"
        },
        {
            "bufferView" : 3,
            "componentType" : 5123,
            "count" : 23808,
            "type" : "SCALAR"
        },
        {
            "bufferView" : 4,
            "componentType" : 5126,
            "count" : 6173,
            "max" : [
                1.862511396408081,
                0.8999999761581421,
                0.0983806923031807
            ],
            "min" : [
                0.029330888763070107,
                -0.8999999761581421,
                -0.479987770318985
            ],
            "type" : "VEC3"
        },
        {
            "bufferView" : 5,
            "componentType" : 5126,
            "count" : 6173,
            "type" : "VEC3"
        },
        {
            "bufferView" : 6,
            "componentType" : 5126,
            "count" : 6173,
            "type" : "VEC2"
        },
        {
            "bufferView" : 7,
            "componentType" : 5123,
            "count" : 11148,
            "type" : "SCALAR"
        },
        {
            "bufferView" : 8,
            "componentType" : 5126,
            "count" : 24,
            "max" : [
                1,
                1,
                1
            ],
            "min" : [
                -1,
                -1,
                -1
            ],
            "type" : "VEC3"
        },
        {
            "bufferView" : 9,
            "componentType" : 5126,
            "count" : 24,
            "type" : "VEC3"
        },
        {
            "bufferView" : 10,
            "componentType" : 5126,
            "count" : 24,
            "type" : "VEC2"
        },
        {
            "bufferView" : 11,
            "componentType" : 5123,
            "count" : 36,
            "type" : "SCALAR"
        },
        {
            "bufferView" : 12,
            "componentType" : 5126,
            "count" : 4,
            "max" : [
                0.6082724928855896,
                0,
                0.5
            ],
            "min" : [
                -0.6082724928855896,
                0,
                -0.5
            ],
            "type" : "VEC3"
        },
        {
            "bufferView" : 13,
            "componentType" : 5126,
            "count" : 4,
            "type" : "VEC3"
        },
        {
            "bufferView" : 14,
            "componentType" : 5126,
            "count" : 4,
            "type" : "VEC2"
        },
        {
            "bufferView" : 15,
            "componentType" : 5123,
            "count" : 6,
            "type" : "SCALAR"
        }
    ],
    "bufferViews" : [
        {
            "buffer" : 0,
            "byteLength" : 280704,
            "byteOffset" : 0
        },
        {
            "buffer" : 0,
            "byteLength" : 280704,
            "byteOffset" : 280704
        },
        {
            "buffer" : 0,
            "byteLength" : 187136,
            "byteOffset" : 561408
        },
        {
            "buffer" : 0,
            "byteLength" : 47616,
            "byteOffset" : 748544
        },
        {
            "buffer" : 0,
            "byteLength" : 74076,
            "byteOffset" : 796160
        },
        {
            "buffer" : 0,
            "byteLength" : 74076,
            "byteOffset" : 870236
        },
        {
            "buffer" : 0,
            "byteLength" : 49384,
            "byteOffset" : 944312
        },
        {
            "buffer" : 0,
            "byteLength" : 22296,
            "byteOffset" : 993696
        },
        {
            "buffer" : 0,
            "byteLength" : 288,
            "byteOffset" : 1015992
        },
        {
            "buffer" : 0,
            "byteLength" : 288,
            "byteOffset" : 1016280
        },
        {
            "buffer" : 0,
            "byteLength" : 192,
            "byteOffset" : 1016568
        },
        {
            "buffer" : 0,
            "byteLength" : 72,
            "byteOffset" : 1016760
        },
        {
            "buffer" : 0,
            "byteLength" : 48,
            "byteOffset" : 1016832
        },
        {
            "buffer" : 0,
            "byteLength" : 48,
            "byteOffset" : 1016880
        },
        {
            "buffer" : 0,
            "byteLength" : 32,
            "byteOffset" : 1016928
        },
        {
            "buffer" : 0,
            "byteLength" : 12,
            "byteOffset" : 1016960
        },
        {
            "buffer" : 0,
            "byteLength" : 167800,
            "byteOffset" : 1016972
        }
    ],
    "samplers" : [
        {
            "magFilter" : 9729,
            "minFilter" : 9986
        }
    ],
    "buffers" : [
        {
            "byteLength" : 1184772,
            "uri" : "data:application/octet-stream;base64,"
        }
    ]
}
