{
    "asset" : {
        "generator" : "Khronos glTF Blender I/O v1.4.40",
        "version" : "2.0"
    },
    "scene" : 0,
    "scenes" : [
        {
            "name" : "Scene",
            "nodes" : [
                0,
                1,
                2,
                3
            ]
        }
    ],
    "nodes" : [
        {
            "name" : "Light",
            "rotation" : [
                0.16907575726509094,
                0.7558803558349609,
                -0.27217137813568115,
                0.570947527885437
            ],
            "translation" : [
                5.243716239929199,
                103.1109390258789,
                -150.34890747070312
            ]
        },
        {
            "name" : "Camera",
            "rotation" : [
                0.483536034822464,
                0.33687159419059753,
                -0.20870360732078552,
                0.7804827094078064
            ],
            "scale" : [
                1.3799999952316284,
                2.0299999713897705,
                1.8199999332427979
            ],
            "translation" : [
                74.05414581298828,
                120.82452392578125,
                185.52365112304688
            ]
        },
        {
            "mesh" : 0,
            "name" : "Circle",
            "rotation" : [
                -0.6831721663475037,
                -0.6831721663475037,
                -0.18241655826568604,
                0.1824166178703308
            ],
            "scale" : [
                86.6025390625,
                150,
                100.41000366210938
            ],
            "translation" : [
                -77.72000122070312,
                40.41999816894531,
                16.809999465942383
            ]
        },
        {
            "mesh" : 1,
            "name" : "Text",
            "rotation" : [
                0.33133170008659363,
                0.0020240151789039373,
                0.005763551685959101,
                0.9434945583343506
            ],
            "scale" : [
                41.92312240600586,
                1,
                44.558963775634766
            ],
            "translation" : [
                25,
                87,
                41
            ]
        }
    ],
    "materials" : [
        {
            "doubleSided" : true,
            "name" : "Material",
            "pbrMetallicRoughness" : {
                "baseColorFactor" : [
                    0.6204249858856201,
                    0.8000000715255737,
                    0.013567555695772171,
                    1
                ],
                "metallicFactor" : 0,
                "roughnessFactor" : 0.4000000059604645
            }
        }
    ],
    "meshes" : [
        {
            "name" : "Circle.001",
            "primitives" : [
                {
                    "attributes" : {
                        "POSITION" : 0,
                        "NORMAL" : 1,
                        "TEXCOORD_0" : 2
                    },
                    "indices" : 3,
                    "material" : 0
                }
            ]
        },
        {
            "name" : "Text",
            "primitives" : [
                {
                    "attributes" : {
                        "POSITION" : 4,
                        "NORMAL" : 5,
                        "TEXCOORD_0" : 6
                    },
                    "indices" : 7,
                    "material" : 0
                }
            ]
        }
    ],
    "accessors" : [
        {
            "bufferView" : 0,
            "componentType" : 5126,
            "count" : 40,
            "max" : [
                0.866025447845459,
                1,
                0.5000000596046448
            ],
            "min" : [
                -0.8660253882408142,
                0,
                -0.9271111488342285
            ],
            "type" : "VEC3"
        },
        {
            "bufferView" : 1,
            "componentType" : 5126,
            "count" : 40,
            "type" : "VEC3"
        },
        {
            "bufferView" : 2,
            "componentType" : 5126,
            "count" : 40,
            "type" : "VEC2"
        },
        {
            "bufferView" : 3,
            "componentType" : 5123,
            "count" : 60,
            "type" : "SCALAR"
        },
        {
            "bufferView" : 4,
            "componentType" : 5126,
            "count" : 691,
            "max" : [
                3.2120003700256348,
                0,
                0.23000000417232513
            ],
            "min" : [
                0.07000000029802322,
                0,
                -0.6820000410079956
            ],
            "type" : "VEC3"
        },
        {
            "bufferView" : 5,
            "componentType" : 5126,
            "count" : 691,
            "type" : "VEC3"
        },
        {
            "bufferView" : 6,
            "componentType" : 5126,
            "count" : 691,
            "type" : "VEC2"
        },
        {
            "bufferView" : 7,
            "componentType" : 5123,
            "count" : 1560,
            "type" : "SCALAR"
        }
    ],
    "bufferViews" : [
        {
            "buffer" : 0,
            "byteLength" : 480,
            "byteOffset" : 0
        },
        {
            "buffer" : 0,
            "byteLength" : 480,
            "byteOffset" : 480
        },
        {
            "buffer" : 0,
            "byteLength" : 320,
            "byteOffset" : 960
        },
        {
            "buffer" : 0,
            "byteLength" : 120,
            "byteOffset" : 1280
        },
        {
            "buffer" : 0,
            "byteLength" : 8292,
            "byteOffset" : 1400
        },
        {
            "buffer" : 0,
            "byteLength" : 8292,
            "byteOffset" : 9692
        },
        {
            "buffer" : 0,
            "byteLength" : 5528,
            "byteOffset" : 17984
        },
        {
            "buffer" : 0,
            "byteLength" : 3120,
            "byteOffset" : 23512
        }
    ],
    "buffers" : [
        {
            "byteLength" : 26632,
            "uri" : "data:application/octet-stream;base64,"
        }
    ]
}
