{
    "asset" : {
        "generator" : "Khronos glTF Blender I/O v1.4.40",
        "version" : "2.0"
    },
    "scene" : 0,
    "scenes" : [
        {
            "name" : "Scene",
            "nodes" : [
                0,
                1,
                2,
                3
            ]
        }
    ],
    "nodes" : [
        {
            "name" : "Light",
            "rotation" : [
                0.16907575726509094,
                0.7558803558349609,
                -0.27217137813568115,
                0.570947527885437
            ],
            "scale" : [
                100,
                100,
                100
            ],
            "translation" : [
                161.5937042236328,
                144.85482788085938,
                -178.63755798339844
            ]
        },
        {
            "name" : "Camera",
            "rotation" : [
                0.483536034822464,
                0.33687159419059753,
                -0.20870360732078552,
                0.7804827094078064
            ],
            "translation" : [
                12.368488311767578,
                39.84354019165039,
                48.027862548828125
            ]
        },
        {
            "mesh" : 0,
            "name" : "Text",
            "rotation" : [
                0.27981311082839966,
                3.3793767215684056e-05,
                0.006352949421852827,
                0.9600334763526917
            ],
            "scale" : [
                100,
                100,
                100.43415832519531
            ],
            "translation" : [
                -105.8556900024414,
                78.82128143310547,
                -87.44996643066406
            ]
        },
        {
            "mesh" : 1,
            "name" : "Cylinder",
            "scale" : [
                75,
                75,
                75
            ],
            "translation" : [
                -0.22460150718688965,
                0.0798346996307373,
                0.03012639284133911
            ]
        }
    ],
    "materials" : [
        {
            "name" : "Material",
            "pbrMetallicRoughness" : {
                "baseColorFactor" : [
                    0.8000000715255737,
                    0.018159816041588783,
                    0.013498823158442974,
                    1
                ],
                "metallicFactor" : 0.1560283750295639,
                "roughnessFactor" : 0.4000000059604645
            }
        }
    ],
    "meshes" : [
        {
            "name" : "Text",
            "primitives" : [
                {
                    "attributes" : {
                        "POSITION" : 0,
                        "NORMAL" : 1,
                        "TEXCOORD_0" : 2
                    },
                    "indices" : 3,
                    "material" : 0
                }
            ]
        },
        {
            "name" : "Cylinder",
            "primitives" : [
                {
                    "attributes" : {
                        "POSITION" : 4,
                        "NORMAL" : 5,
                        "TEXCOORD_0" : 6
                    },
                    "indices" : 7,
                    "material" : 0
                }
            ]
        }
    ],
    "accessors" : [
        {
            "bufferView" : 0,
            "componentType" : 5126,
            "count" : 943,
            "max" : [
                2.361093759536743,
                0,
                0.10264290124177933
            ],
            "min" : [
                0.03902888670563698,
                0,
                -0.4834050238132477
            ],
            "type" : "VEC3"
        },
        {
            "bufferView" : 1,
            "componentType" : 5126,
            "count" : 943,
            "type" : "VEC3"
        },
        {
            "bufferView" : 2,
            "componentType" : 5126,
            "count" : 943,
            "type" : "VEC2"
        },
        {
            "bufferView" : 3,
            "componentType" : 5123,
            "count" : 2043,
            "type" : "SCALAR"
        },
        {
            "bufferView" : 4,
            "componentType" : 5126,
            "count" : 1536,
            "max" : [
                1.018560528755188,
                1.0174850225448608,
                1.018560528755188
            ],
            "min" : [
                -1.018560528755188,
                -1.0174850225448608,
                -1.018560528755188
            ],
            "type" : "VEC3"
        },
        {
            "bufferView" : 5,
            "componentType" : 5126,
            "count" : 1536,
            "type" : "VEC3"
        },
        {
            "bufferView" : 6,
            "componentType" : 5126,
            "count" : 1536,
            "type" : "VEC2"
        },
        {
            "bufferView" : 7,
            "componentType" : 5123,
            "count" : 2304,
            "type" : "SCALAR"
        }
    ],
    "bufferViews" : [
        {
            "buffer" : 0,
            "byteLength" : 11316,
            "byteOffset" : 0
        },
        {
            "buffer" : 0,
            "byteLength" : 11316,
            "byteOffset" : 11316
        },
        {
            "buffer" : 0,
            "byteLength" : 7544,
            "byteOffset" : 22632
        },
        {
            "buffer" : 0,
            "byteLength" : 4086,
            "byteOffset" : 30176
        },
        {
            "buffer" : 0,
            "byteLength" : 18432,
            "byteOffset" : 34264
        },
        {
            "buffer" : 0,
            "byteLength" : 18432,
            "byteOffset" : 52696
        },
        {
            "buffer" : 0,
            "byteLength" : 12288,
            "byteOffset" : 71128
        },
        {
            "buffer" : 0,
            "byteLength" : 4608,
            "byteOffset" : 83416
        }
    ],
    "buffers" : [
        {
            "byteLength" : 88024,
            "uri" : "data:application/octet-stream;base64,"
        }
    ]
}
