{
    "asset" : {
        "generator" : "Khronos glTF Blender I/O v1.4.40",
        "version" : "2.0"
    },
    "scene" : 0,
    "scenes" : [
        {
            "name" : "Scene",
            "nodes" : [
                0,
                1,
                2,
                3
            ]
        }
    ],
    "nodes" : [
        {
            "name" : "Light",
            "rotation" : [
                0.16907575726509094,
                0.7558803558349609,
                -0.27217137813568115,
                0.570947527885437
            ],
            "translation" : [
                5.243716239929199,
                103.1109390258789,
                -150.34890747070312
            ]
        },
        {
            "name" : "Camera",
            "rotation" : [
                0.483536034822464,
                0.33687159419059753,
                -0.20870360732078552,
                0.7804827094078064
            ],
            "scale" : [
                1.3799999952316284,
                2.0299999713897705,
                1.8199999332427979
            ],
            "translation" : [
                74.05414581298828,
                120.82452392578125,
                185.52365112304688
            ]
        },
        {
            "mesh" : 0,
            "name" : "Sphere",
            "scale" : [
                75,
                75,
                74.99998474121094
            ]
        },
        {
            "mesh" : 1,
            "name" : "Text",
            "rotation" : [
                0.15424655377864838,
                0.04287544637918472,
                -0.013773458078503609,
                0.9870055913925171
            ],
            "scale" : [
                52.687034606933594,
                1.2511111497879028,
                144.71778869628906
            ],
            "translation" : [
                72.0040512084961,
                3.3695573806762695,
                -14.66500186920166
            ]
        }
    ],
    "materials" : [
        {
            "name" : "Material",
            "pbrMetallicRoughness" : {
                "baseColorFactor" : [
                    0.03107072226703167,
                    0.8000000715255737,
                    0.8000000715255737,
                    1
                ],
                "metallicFactor" : 0.1560283750295639,
                "roughnessFactor" : 0.4000000059604645
            }
        }
    ],
    "meshes" : [
        {
            "name" : "Sphere",
            "primitives" : [
                {
                    "attributes" : {
                        "POSITION" : 0,
                        "NORMAL" : 1,
                        "TEXCOORD_0" : 2
                    },
                    "indices" : 3,
                    "material" : 0
                }
            ]
        },
        {
            "name" : "sphere",
            "primitives" : [
                {
                    "attributes" : {
                        "POSITION" : 4,
                        "NORMAL" : 5,
                        "TEXCOORD_0" : 6
                    },
                    "indices" : 7,
                    "material" : 0
                }
            ]
        }
    ],
    "accessors" : [
        {
            "bufferView" : 0,
            "componentType" : 5126,
            "count" : 15872,
            "max" : [
                1.0050002336502075,
                1.0049999952316284,
                1.005000352859497
            ],
            "min" : [
                -1.0049998760223389,
                -1.0049999952316284,
                -1.0049999952316284
            ],
            "type" : "VEC3"
        },
        {
            "bufferView" : 1,
            "componentType" : 5126,
            "count" : 15872,
            "type" : "VEC3"
        },
        {
            "bufferView" : 2,
            "componentType" : 5126,
            "count" : 15872,
            "type" : "VEC2"
        },
        {
            "bufferView" : 3,
            "componentType" : 5123,
            "count" : 23808,
            "type" : "SCALAR"
        },
        {
            "bufferView" : 4,
            "componentType" : 5126,
            "count" : 6172,
            "max" : [
                1.862511396408081,
                0.8999999761581421,
                0.0983806923031807
            ],
            "min" : [
                0.029330888763070107,
                -0.8999999761581421,
                -0.479987770318985
            ],
            "type" : "VEC3"
        },
        {
            "bufferView" : 5,
            "componentType" : 5126,
            "count" : 6172,
            "type" : "VEC3"
        },
        {
            "bufferView" : 6,
            "componentType" : 5126,
            "count" : 6172,
            "type" : "VEC2"
        },
        {
            "bufferView" : 7,
            "componentType" : 5123,
            "count" : 11148,
            "type" : "SCALAR"
        }
    ],
    "bufferViews" : [
        {
            "buffer" : 0,
            "byteLength" : 190464,
            "byteOffset" : 0
        },
        {
            "buffer" : 0,
            "byteLength" : 190464,
            "byteOffset" : 190464
        },
        {
            "buffer" : 0,
            "byteLength" : 126976,
            "byteOffset" : 380928
        },
        {
            "buffer" : 0,
            "byteLength" : 47616,
            "byteOffset" : 507904
        },
        {
            "buffer" : 0,
            "byteLength" : 74064,
            "byteOffset" : 555520
        },
        {
            "buffer" : 0,
            "byteLength" : 74064,
            "byteOffset" : 629584
        },
        {
            "buffer" : 0,
            "byteLength" : 49376,
            "byteOffset" : 703648
        },
        {
            "buffer" : 0,
            "byteLength" : 22296,
            "byteOffset" : 753024
        }
    ],
    "buffers" : [
        {
            "byteLength" : 775320,
            "uri" : "data:application/octet-stream;base64,"
        }
    ]
}
